# xmcd
#
# Track frame offsets: 
#        150
#        34675
#        69435
#        93810
#        117602
#        145647
#        184217
#        210990
#        234290
#        260490
#        292095
#
# Disc length: 4363 seconds
#
# Revision: 2
# Processed by: cddbd v1.5PL3 Copyright (c) Steve Scherf et al.
# Submitted via: ExactAudioCopy v0.95a5
#
DISCID=9a11090b
DTITLE=Every Little Thing - THE REMIXES
DYEAR=1997
DGENRE=Pop
TTITLE0=Feel My Heart(Plasma Mix)
TTITLE1=Season(Cloudy Skies Mix)
TTITLE2=I'll get over you(intensive Mix)
TTITLE3=Looking Back On Your Love(Groove That Soul Mix)
TTITLE4=Here and everywhere(Super Bootbeat Mix)
TTITLE5=Future World(Right Attitude Remix)
TTITLE6=Dear My Friend('97 Pumped Up Mix)
TTITLE7=Never Stop!(Satoshi's Summer Breeze Mix)
TTITLE8=I'll get over you(Lightfoot's Dow eat Mix)
TTITLE9=Tatoe Tooku Hanaretetemo(Trip Strip Mix)
TTITLE10=Future World(Future Contact Mix)
EXTD=
EXTT0=
EXTT1=
EXTT2=
EXTT3=
EXTT4=
EXTT5=
EXTT6=
EXTT7=
EXTT8=
EXTT9=
EXTT10=
PLAYORDER=
